<svg width="39" height="39" viewBox="0 0 39 39" fill="none" xmlns="http://www.w3.org/2000/svg">
<circle cx="19.5" cy="19.5" r="19.5" fill="#1E715E"/>
<path d="M13.792 27V24.48L20.272 18.36C20.784 17.896 21.16 17.48 21.4 17.112C21.64 16.744 21.8 16.408 21.88 16.104C21.976 15.8 22.024 15.52 22.024 15.264C22.024 14.592 21.792 14.08 21.328 13.728C20.88 13.36 20.216 13.176 19.336 13.176C18.632 13.176 17.976 13.312 17.368 13.584C16.776 13.856 16.272 14.28 15.856 14.856L13.024 13.032C13.664 12.072 14.56 11.312 15.712 10.752C16.864 10.192 18.192 9.912 19.696 9.912C20.944 9.912 22.032 10.12 22.96 10.536C23.904 10.936 24.632 11.504 25.144 12.24C25.672 12.976 25.936 13.856 25.936 14.88C25.936 15.424 25.864 15.968 25.72 16.512C25.592 17.04 25.32 17.6 24.904 18.192C24.504 18.784 23.912 19.448 23.128 20.184L17.752 25.248L17.008 23.832H26.488V27H13.792Z" fill="white"/>
</svg>
