<svg width="39" height="39" viewBox="0 0 39 39" fill="none" xmlns="http://www.w3.org/2000/svg">
<circle cx="19.5" cy="19.5" r="19.5" fill="#1E715E"/>
<path d="M19.384 27.288C18.216 27.288 17.056 27.136 15.904 26.832C14.752 26.512 13.776 26.064 12.976 25.488L14.488 22.512C15.128 22.976 15.872 23.344 16.72 23.616C17.568 23.888 18.424 24.024 19.288 24.024C20.264 24.024 21.032 23.832 21.592 23.448C22.152 23.064 22.432 22.536 22.432 21.864C22.432 21.224 22.184 20.72 21.688 20.352C21.192 19.984 20.392 19.8 19.288 19.8H17.512V17.232L22.192 11.928L22.624 13.32H13.816V10.2H25.576V12.72L20.92 18.024L18.952 16.896H20.08C22.144 16.896 23.704 17.36 24.76 18.288C25.816 19.216 26.344 20.408 26.344 21.864C26.344 22.808 26.096 23.696 25.6 24.528C25.104 25.344 24.344 26.008 23.32 26.52C22.296 27.032 20.984 27.288 19.384 27.288Z" fill="white"/>
</svg>
