<svg width="230" height="28" viewBox="0 0 230 28" fill="none" xmlns="http://www.w3.org/2000/svg">
<path d="M0.392 27L10.184 4.6H17.608L27.4 27H19.592L12.36 8.184H15.304L8.072 27H0.392ZM6.216 23.096L8.136 17.656H18.44L20.36 23.096H6.216ZM35.905 27.32C34.3903 27.32 32.9823 26.9573 31.681 26.232C30.401 25.4853 29.377 24.44 28.609 23.096C27.841 21.7307 27.457 20.1093 27.457 18.232C27.457 16.3547 27.841 14.744 28.609 13.4C29.377 12.0347 30.401 10.9893 31.681 10.264C32.9823 9.53867 34.3903 9.176 35.905 9.176C37.441 9.176 38.6997 9.50667 39.681 10.168C40.6623 10.808 41.3877 11.8 41.857 13.144C42.3263 14.4667 42.561 16.1627 42.561 18.232C42.561 20.3227 42.337 22.04 41.889 23.384C41.4623 24.728 40.7583 25.72 39.777 26.36C38.817 27 37.5263 27.32 35.905 27.32ZM37.633 21.688C38.1663 21.688 38.6463 21.56 39.073 21.304C39.4997 21.048 39.841 20.664 40.097 20.152C40.353 19.6187 40.481 18.9787 40.481 18.232C40.481 17.464 40.353 16.8347 40.097 16.344C39.841 15.832 39.4997 15.448 39.073 15.192C38.6463 14.936 38.1663 14.808 37.633 14.808C37.0997 14.808 36.6197 14.936 36.193 15.192C35.7663 15.448 35.425 15.832 35.169 16.344C34.913 16.8347 34.785 17.464 34.785 18.232C34.785 18.9787 34.913 19.6187 35.169 20.152C35.425 20.664 35.7663 21.048 36.193 21.304C36.6197 21.56 37.0997 21.688 37.633 21.688ZM40.705 27V24.632L40.673 18.232L40.353 11.832V3.256H47.585V27H40.705ZM60.0355 27.32C58.0515 27.32 56.2915 26.936 54.7555 26.168C53.2408 25.3787 52.0462 24.3013 51.1715 22.936C50.2968 21.5707 49.8595 20.0027 49.8595 18.232C49.8595 16.4613 50.2968 14.8933 51.1715 13.528C52.0462 12.1627 53.2408 11.096 54.7555 10.328C56.2915 9.56 58.0515 9.176 60.0355 9.176C62.0195 9.176 63.7795 9.56 65.3155 10.328C66.8515 11.096 68.0462 12.1627 68.8995 13.528C69.7742 14.8933 70.2115 16.4613 70.2115 18.232C70.2115 20.0027 69.7742 21.5707 68.8995 22.936C68.0462 24.3013 66.8515 25.3787 65.3155 26.168C63.7795 26.936 62.0195 27.32 60.0355 27.32ZM60.0355 21.688C60.5688 21.688 61.0488 21.56 61.4755 21.304C61.9022 21.048 62.2435 20.664 62.4995 20.152C62.7555 19.6187 62.8835 18.9787 62.8835 18.232C62.8835 17.464 62.7555 16.8347 62.4995 16.344C62.2435 15.832 61.9022 15.448 61.4755 15.192C61.0488 14.936 60.5688 14.808 60.0355 14.808C59.5022 14.808 59.0222 14.936 58.5955 15.192C58.1688 15.448 57.8275 15.832 57.5715 16.344C57.3155 16.8347 57.1875 17.464 57.1875 18.232C57.1875 18.9787 57.3155 19.6187 57.5715 20.152C57.8275 20.664 58.1688 21.048 58.5955 21.304C59.0222 21.56 59.5022 21.688 60.0355 21.688ZM84.635 9.176C85.979 9.176 87.195 9.45333 88.283 10.008C89.371 10.5413 90.2243 11.384 90.843 12.536C91.483 13.688 91.803 15.1813 91.803 17.016V27H84.571V18.264C84.571 17.176 84.379 16.408 83.995 15.96C83.611 15.4907 83.0883 15.256 82.427 15.256C81.9363 15.256 81.4777 15.3733 81.051 15.608C80.6457 15.8213 80.315 16.184 80.059 16.696C79.8243 17.208 79.707 17.9013 79.707 18.776V27H72.475V9.496H79.355V14.616L77.979 13.144C78.6617 11.8213 79.579 10.8293 80.731 10.168C81.9043 9.50667 83.2057 9.176 84.635 9.176ZM94.9438 27V9.496H102.176V27H94.9438ZM98.5598 8.088C97.2371 8.088 96.1811 7.736 95.3918 7.032C94.6024 6.328 94.2078 5.45333 94.2078 4.408C94.2078 3.36267 94.6024 2.488 95.3918 1.784C96.1811 1.08 97.2371 0.727999 98.5598 0.727999C99.8824 0.727999 100.938 1.05867 101.728 1.72C102.517 2.38133 102.912 3.23466 102.912 4.28C102.912 5.38933 102.517 6.30667 101.728 7.032C100.938 7.736 99.8824 8.088 98.5598 8.088ZM112.229 27.32C110.736 27.32 109.264 27.16 107.813 26.84C106.363 26.52 105.189 26.104 104.293 25.592L106.277 20.824C107.109 21.3147 108.069 21.6987 109.157 21.976C110.267 22.2533 111.344 22.392 112.389 22.392C113.264 22.392 113.851 22.3173 114.149 22.168C114.469 22.0187 114.629 21.816 114.629 21.56C114.629 21.304 114.448 21.1227 114.085 21.016C113.723 20.888 113.243 20.792 112.645 20.728C112.048 20.664 111.387 20.5893 110.661 20.504C109.957 20.3973 109.243 20.248 108.517 20.056C107.792 19.864 107.131 19.576 106.533 19.192C105.936 18.808 105.456 18.296 105.093 17.656C104.731 16.9947 104.549 16.1627 104.549 15.16C104.549 14.0507 104.88 13.048 105.541 12.152C106.224 11.256 107.227 10.5413 108.549 10.008C109.893 9.45333 111.547 9.176 113.509 9.176C114.789 9.176 116.069 9.29333 117.349 9.528C118.629 9.76267 119.728 10.1253 120.645 10.616L118.661 15.384C117.765 14.8933 116.88 14.5627 116.005 14.392C115.152 14.2 114.352 14.104 113.605 14.104C112.688 14.104 112.059 14.1893 111.717 14.36C111.397 14.5307 111.237 14.7227 111.237 14.936C111.237 15.192 111.419 15.384 111.781 15.512C112.144 15.64 112.624 15.736 113.221 15.8C113.819 15.864 114.469 15.9493 115.173 16.056C115.899 16.1413 116.613 16.2907 117.317 16.504C118.043 16.696 118.704 16.984 119.301 17.368C119.899 17.752 120.379 18.2747 120.741 18.936C121.104 19.576 121.285 20.3973 121.285 21.4C121.285 22.4453 120.955 23.4267 120.293 24.344C119.632 25.24 118.629 25.9653 117.285 26.52C115.941 27.0533 114.256 27.32 112.229 27.32ZM143.626 27.192C141.941 27.192 140.383 26.9147 138.954 26.36C137.525 25.784 136.287 24.984 135.242 23.96C134.197 22.936 133.375 21.7307 132.778 20.344C132.202 18.9573 131.914 17.4427 131.914 15.8C131.914 14.1573 132.202 12.6427 132.778 11.256C133.375 9.86933 134.197 8.664 135.242 7.64C136.309 6.616 137.557 5.82667 138.986 5.272C140.415 4.696 141.973 4.408 143.658 4.408C145.279 4.408 146.805 4.68533 148.234 5.24C149.663 5.77333 150.869 6.584 151.85 7.672L150.346 9.176C149.429 8.23733 148.415 7.56533 147.306 7.16C146.197 6.73333 145.002 6.52 143.722 6.52C142.378 6.52 141.13 6.75467 139.978 7.224C138.826 7.672 137.823 8.32267 136.97 9.176C136.117 10.008 135.445 10.9893 134.954 12.12C134.485 13.2293 134.25 14.456 134.25 15.8C134.25 17.144 134.485 18.3813 134.954 19.512C135.445 20.6213 136.117 21.6027 136.97 22.456C137.823 23.288 138.826 23.9387 139.978 24.408C141.13 24.856 142.378 25.08 143.722 25.08C145.002 25.08 146.197 24.8667 147.306 24.44C148.415 24.0133 149.429 23.3307 150.346 22.392L151.85 23.896C150.869 24.984 149.663 25.8053 148.234 26.36C146.805 26.9147 145.269 27.192 143.626 27.192ZM162.8 27.16C161.37 27.16 160.122 26.8933 159.056 26.36C157.989 25.8267 157.157 25.0267 156.56 23.96C155.984 22.8933 155.696 21.56 155.696 19.96V10.2H157.968V19.704C157.968 21.496 158.405 22.8507 159.28 23.768C160.176 24.664 161.424 25.112 163.024 25.112C164.197 25.112 165.21 24.8773 166.064 24.408C166.938 23.9173 167.6 23.2133 168.048 22.296C168.517 21.3787 168.752 20.28 168.752 19V10.2H171.024V27H168.847V22.392L169.2 23.224C168.666 24.4613 167.834 25.432 166.704 26.136C165.594 26.8187 164.293 27.16 162.8 27.16ZM187.884 27V23.288L187.788 22.68V16.472C187.788 15.0427 187.382 13.944 186.572 13.176C185.782 12.408 184.598 12.024 183.02 12.024C181.932 12.024 180.897 12.2053 179.916 12.568C178.934 12.9307 178.102 13.4107 177.42 14.008L176.396 12.312C177.249 11.5867 178.273 11.032 179.468 10.648C180.662 10.2427 181.921 10.04 183.244 10.04C185.42 10.04 187.094 10.584 188.268 11.672C189.462 12.7387 190.06 14.3707 190.06 16.568V27H187.884ZM182.092 27.16C180.833 27.16 179.734 26.9573 178.796 26.552C177.878 26.1253 177.174 25.5493 176.684 24.824C176.193 24.0773 175.948 23.224 175.948 22.264C175.948 21.3893 176.15 20.6 176.556 19.896C176.982 19.1707 177.665 18.5947 178.604 18.168C179.564 17.72 180.844 17.496 182.444 17.496H188.236V19.192H182.508C180.886 19.192 179.756 19.48 179.116 20.056C178.497 20.632 178.188 21.3467 178.188 22.2C178.188 23.16 178.561 23.928 179.308 24.504C180.054 25.08 181.1 25.368 182.444 25.368C183.724 25.368 184.822 25.08 185.74 24.504C186.678 23.9067 187.361 23.0533 187.788 21.944L188.3 23.512C187.873 24.6213 187.126 25.5067 186.06 26.168C185.014 26.8293 183.692 27.16 182.092 27.16ZM196.231 27V10.2H198.503V27H196.231ZM197.383 6.488C196.913 6.488 196.519 6.328 196.199 6.008C195.879 5.688 195.719 5.304 195.719 4.856C195.719 4.408 195.879 4.03466 196.199 3.736C196.519 3.416 196.913 3.256 197.383 3.256C197.852 3.256 198.247 3.40533 198.567 3.704C198.887 4.00267 199.047 4.376 199.047 4.824C199.047 5.29333 198.887 5.688 198.567 6.008C198.268 6.328 197.873 6.488 197.383 6.488ZM215.352 27V23.288L215.256 22.68V16.472C215.256 15.0427 214.851 13.944 214.04 13.176C213.251 12.408 212.067 12.024 210.488 12.024C209.4 12.024 208.366 12.2053 207.384 12.568C206.403 12.9307 205.571 13.4107 204.888 14.008L203.864 12.312C204.718 11.5867 205.742 11.032 206.936 10.648C208.131 10.2427 209.39 10.04 210.712 10.04C212.888 10.04 214.563 10.584 215.736 11.672C216.931 12.7387 217.528 14.3707 217.528 16.568V27H215.352ZM209.56 27.16C208.302 27.16 207.203 26.9573 206.264 26.552C205.347 26.1253 204.643 25.5493 204.152 24.824C203.662 24.0773 203.416 23.224 203.416 22.264C203.416 21.3893 203.619 20.6 204.024 19.896C204.451 19.1707 205.134 18.5947 206.072 18.168C207.032 17.72 208.312 17.496 209.912 17.496H215.704V19.192H209.976C208.355 19.192 207.224 19.48 206.584 20.056C205.966 20.632 205.656 21.3467 205.656 22.2C205.656 23.16 206.03 23.928 206.776 24.504C207.523 25.08 208.568 25.368 209.912 25.368C211.192 25.368 212.291 25.08 213.208 24.504C214.147 23.9067 214.83 23.0533 215.256 21.944L215.768 23.512C215.342 24.6213 214.595 25.5067 213.528 26.168C212.483 26.8293 211.16 27.16 209.56 27.16ZM225.395 27.32C224.201 27.32 223.198 26.936 222.387 26.168C221.577 25.3787 221.171 24.376 221.171 23.16C221.171 21.9227 221.577 20.9307 222.387 20.184C223.198 19.4373 224.201 19.064 225.395 19.064C226.59 19.064 227.593 19.4373 228.403 20.184C229.214 20.9307 229.619 21.9227 229.619 23.16C229.619 24.376 229.214 25.3787 228.403 26.168C227.593 26.936 226.59 27.32 225.395 27.32Z" fill="#1E715E"/>
</svg>
