<svg width="170" height="25" viewBox="0 0 170 25" fill="none" xmlns="http://www.w3.org/2000/svg">
<path d="M-0.0079999 19V2.2H3.208L10.36 14.056H8.656L15.688 2.2H18.88L18.928 19H15.28L15.256 7.792H15.928L10.312 17.224H8.56L2.824 7.792H3.64V19H-0.0079999ZM22.6499 19V6.088H26.3939V19H22.6499ZM24.5219 4.288C23.8339 4.288 23.2739 4.088 22.8419 3.688C22.4099 3.288 22.1939 2.792 22.1939 2.2C22.1939 1.608 22.4099 1.112 22.8419 0.711999C23.2739 0.311999 23.8339 0.111999 24.5219 0.111999C25.2099 0.111999 25.7699 0.303999 26.2019 0.688C26.6339 1.056 26.8499 1.536 26.8499 2.128C26.8499 2.752 26.6339 3.272 26.2019 3.688C25.7859 4.088 25.2259 4.288 24.5219 4.288ZM37.7166 5.896C38.7406 5.896 39.6526 6.104 40.4526 6.52C41.2686 6.92 41.9086 7.544 42.3726 8.392C42.8366 9.224 43.0686 10.296 43.0686 11.608V19H39.3246V12.184C39.3246 11.144 39.0926 10.376 38.6286 9.88C38.1806 9.384 37.5406 9.136 36.7086 9.136C36.1166 9.136 35.5806 9.264 35.1006 9.52C34.6366 9.76 34.2686 10.136 33.9966 10.648C33.7406 11.16 33.6126 11.816 33.6126 12.616V19H29.8686V6.088H33.4446V9.664L32.7726 8.584C33.2366 7.72 33.9006 7.056 34.7646 6.592C35.6286 6.128 36.6126 5.896 37.7166 5.896ZM54.3104 5.896C55.3344 5.896 56.2464 6.104 57.0464 6.52C57.8624 6.92 58.5024 7.544 58.9664 8.392C59.4304 9.224 59.6624 10.296 59.6624 11.608V19H55.9184V12.184C55.9184 11.144 55.6864 10.376 55.2224 9.88C54.7744 9.384 54.1344 9.136 53.3024 9.136C52.7104 9.136 52.1744 9.264 51.6944 9.52C51.2304 9.76 50.8624 10.136 50.5904 10.648C50.3344 11.16 50.2064 11.816 50.2064 12.616V19H46.4624V1.192H50.2064V9.664L49.3664 8.584C49.8304 7.72 50.4944 7.056 51.3584 6.592C52.2224 6.128 53.2064 5.896 54.3104 5.896ZM70.9761 19V16.48L70.7361 15.928V11.416C70.7361 10.616 70.4881 9.992 69.9921 9.544C69.5121 9.096 68.7681 8.872 67.7601 8.872C67.0721 8.872 66.3921 8.984 65.7201 9.208C65.0641 9.416 64.5041 9.704 64.0401 10.072L62.6961 7.456C63.4001 6.96 64.2481 6.576 65.2401 6.304C66.2321 6.032 67.2401 5.896 68.2641 5.896C70.2321 5.896 71.7601 6.36 72.8481 7.288C73.9361 8.216 74.4801 9.664 74.4801 11.632V19H70.9761ZM67.0401 19.192C66.0321 19.192 65.1681 19.024 64.4481 18.688C63.7281 18.336 63.1761 17.864 62.7921 17.272C62.4081 16.68 62.2161 16.016 62.2161 15.28C62.2161 14.512 62.4001 13.84 62.7681 13.264C63.1521 12.688 63.7521 12.24 64.5681 11.92C65.3841 11.584 66.4481 11.416 67.7601 11.416H71.1921V13.6H68.1681C67.2881 13.6 66.6801 13.744 66.3441 14.032C66.0241 14.32 65.8641 14.68 65.8641 15.112C65.8641 15.592 66.0481 15.976 66.4161 16.264C66.8001 16.536 67.3201 16.672 67.9761 16.672C68.6001 16.672 69.1601 16.528 69.6561 16.24C70.1521 15.936 70.5121 15.496 70.7361 14.92L71.3121 16.648C71.0401 17.48 70.5441 18.112 69.8241 18.544C69.1041 18.976 68.1761 19.192 67.0401 19.192ZM85.1215 19V5.8C85.1215 4.344 85.5535 3.184 86.4175 2.32C87.2815 1.44 88.5135 0.999999 90.1135 0.999999C90.6575 0.999999 91.1775 1.056 91.6735 1.168C92.1855 1.28 92.6175 1.456 92.9695 1.696L91.9855 4.408C91.7775 4.264 91.5455 4.152 91.2895 4.072C91.0335 3.992 90.7615 3.952 90.4735 3.952C89.9295 3.952 89.5055 4.112 89.2015 4.432C88.9135 4.736 88.7695 5.2 88.7695 5.824V7.024L88.8655 8.632V19H85.1215ZM83.1295 9.256V6.376H92.0815V9.256H83.1295ZM99.3948 19.192C98.3228 19.192 97.3628 18.984 96.5148 18.568C95.6828 18.152 95.0348 17.52 94.5708 16.672C94.1068 15.808 93.8748 14.712 93.8748 13.384V6.088H97.6188V12.832C97.6188 13.904 97.8428 14.696 98.2908 15.208C98.7548 15.704 99.4028 15.952 100.235 15.952C100.811 15.952 101.323 15.832 101.771 15.592C102.219 15.336 102.571 14.952 102.827 14.44C103.083 13.912 103.211 13.256 103.211 12.472V6.088H106.955V19H103.403V15.448L104.051 16.48C103.619 17.376 102.979 18.056 102.131 18.52C101.299 18.968 100.387 19.192 99.3948 19.192ZM118.271 5.896C119.295 5.896 120.207 6.104 121.007 6.52C121.823 6.92 122.463 7.544 122.927 8.392C123.391 9.224 123.623 10.296 123.623 11.608V19H119.879V12.184C119.879 11.144 119.647 10.376 119.183 9.88C118.735 9.384 118.095 9.136 117.263 9.136C116.671 9.136 116.135 9.264 115.655 9.52C115.191 9.76 114.823 10.136 114.551 10.648C114.295 11.16 114.167 11.816 114.167 12.616V19H110.423V6.088H113.999V9.664L113.327 8.584C113.791 7.72 114.455 7.056 115.319 6.592C116.183 6.128 117.167 5.896 118.271 5.896ZM133.351 19.192C131.959 19.192 130.719 18.912 129.631 18.352C128.543 17.776 127.687 16.984 127.063 15.976C126.455 14.968 126.151 13.824 126.151 12.544C126.151 11.248 126.455 10.104 127.063 9.112C127.687 8.104 128.543 7.32 129.631 6.76C130.719 6.184 131.959 5.896 133.351 5.896C134.711 5.896 135.895 6.184 136.903 6.76C137.911 7.32 138.655 8.128 139.135 9.184L136.231 10.744C135.895 10.136 135.471 9.688 134.959 9.4C134.463 9.112 133.919 8.968 133.327 8.968C132.687 8.968 132.111 9.112 131.599 9.4C131.087 9.688 130.679 10.096 130.375 10.624C130.087 11.152 129.943 11.792 129.943 12.544C129.943 13.296 130.087 13.936 130.375 14.464C130.679 14.992 131.087 15.4 131.599 15.688C132.111 15.976 132.687 16.12 133.327 16.12C133.919 16.12 134.463 15.984 134.959 15.712C135.471 15.424 135.895 14.968 136.231 14.344L139.135 15.928C138.655 16.968 137.911 17.776 136.903 18.352C135.895 18.912 134.711 19.192 133.351 19.192ZM131.983 24.568C131.567 24.568 131.159 24.52 130.759 24.424C130.375 24.328 130.039 24.208 129.751 24.064L130.327 22.456C130.567 22.568 130.815 22.656 131.071 22.72C131.327 22.784 131.599 22.816 131.887 22.816C132.335 22.816 132.655 22.744 132.847 22.6C133.039 22.456 133.135 22.272 133.135 22.048C133.135 21.84 133.039 21.672 132.847 21.544C132.671 21.416 132.375 21.352 131.959 21.352H131.143L131.767 18.808H133.759L133.423 20.2C134.143 20.28 134.671 20.504 135.007 20.872C135.343 21.256 135.511 21.696 135.511 22.192C135.511 22.912 135.191 23.488 134.551 23.92C133.911 24.352 133.055 24.568 131.983 24.568ZM149.211 19V16.48L148.971 15.928V11.416C148.971 10.616 148.723 9.992 148.227 9.544C147.747 9.096 147.003 8.872 145.995 8.872C145.307 8.872 144.627 8.984 143.955 9.208C143.299 9.416 142.739 9.704 142.275 10.072L140.931 7.456C141.635 6.96 142.483 6.576 143.475 6.304C144.467 6.032 145.475 5.896 146.499 5.896C148.467 5.896 149.995 6.36 151.083 7.288C152.171 8.216 152.715 9.664 152.715 11.632V19H149.211ZM145.275 19.192C144.267 19.192 143.403 19.024 142.683 18.688C141.963 18.336 141.411 17.864 141.027 17.272C140.643 16.68 140.451 16.016 140.451 15.28C140.451 14.512 140.635 13.84 141.003 13.264C141.387 12.688 141.987 12.24 142.803 11.92C143.619 11.584 144.683 11.416 145.995 11.416H149.427V13.6H146.403C145.523 13.6 144.915 13.744 144.579 14.032C144.259 14.32 144.099 14.68 144.099 15.112C144.099 15.592 144.283 15.976 144.651 16.264C145.035 16.536 145.555 16.672 146.211 16.672C146.835 16.672 147.395 16.528 147.891 16.24C148.387 15.936 148.747 15.496 148.971 14.92L149.547 16.648C149.275 17.48 148.779 18.112 148.059 18.544C147.339 18.976 146.411 19.192 145.275 19.192ZM148.683 4.504C148.267 4.504 147.899 4.432 147.579 4.288C147.259 4.128 146.971 3.952 146.715 3.76C146.459 3.552 146.219 3.376 145.995 3.232C145.771 3.072 145.547 2.992 145.323 2.992C145.003 2.992 144.739 3.112 144.531 3.352C144.323 3.576 144.203 3.904 144.171 4.336H142.275C142.307 3.264 142.571 2.416 143.067 1.792C143.563 1.152 144.235 0.831999 145.083 0.831999C145.499 0.831999 145.867 0.911999 146.187 1.072C146.507 1.216 146.795 1.392 147.051 1.6C147.323 1.808 147.571 1.992 147.795 2.152C148.019 2.296 148.235 2.368 148.443 2.368C148.779 2.368 149.051 2.256 149.259 2.032C149.467 1.792 149.579 1.472 149.595 1.072H151.491C151.475 2.096 151.211 2.928 150.699 3.568C150.203 4.192 149.531 4.504 148.683 4.504ZM162.341 19.192C160.965 19.192 159.741 18.904 158.669 18.328C157.613 17.752 156.773 16.968 156.149 15.976C155.541 14.968 155.237 13.824 155.237 12.544C155.237 11.248 155.541 10.104 156.149 9.112C156.773 8.104 157.613 7.32 158.669 6.76C159.741 6.184 160.965 5.896 162.341 5.896C163.701 5.896 164.917 6.184 165.989 6.76C167.061 7.32 167.901 8.096 168.509 9.088C169.117 10.08 169.421 11.232 169.421 12.544C169.421 13.824 169.117 14.968 168.509 15.976C167.901 16.968 167.061 17.752 165.989 18.328C164.917 18.904 163.701 19.192 162.341 19.192ZM162.341 16.12C162.965 16.12 163.525 15.976 164.021 15.688C164.517 15.4 164.909 14.992 165.197 14.464C165.485 13.92 165.629 13.28 165.629 12.544C165.629 11.792 165.485 11.152 165.197 10.624C164.909 10.096 164.517 9.688 164.021 9.4C163.525 9.112 162.965 8.968 162.341 8.968C161.717 8.968 161.157 9.112 160.661 9.4C160.165 9.688 159.765 10.096 159.461 10.624C159.173 11.152 159.029 11.792 159.029 12.544C159.029 13.28 159.173 13.92 159.461 14.464C159.765 14.992 160.165 15.4 160.661 15.688C161.157 15.976 161.717 16.12 162.341 16.12Z" fill="#1E715E"/>
</svg>
