<svg width="231" height="39" viewBox="0 0 231 39" fill="none" xmlns="http://www.w3.org/2000/svg">
<path d="M0.392 31L10.184 8.6H17.608L27.4 31H19.592L12.36 12.184H15.304L8.072 31H0.392ZM6.216 27.096L8.136 21.656H18.44L20.36 27.096H6.216ZM35.905 31.32C34.3903 31.32 32.9823 30.9573 31.681 30.232C30.401 29.4853 29.377 28.44 28.609 27.096C27.841 25.7307 27.457 24.1093 27.457 22.232C27.457 20.3547 27.841 18.744 28.609 17.4C29.377 16.0347 30.401 14.9893 31.681 14.264C32.9823 13.5387 34.3903 13.176 35.905 13.176C37.441 13.176 38.6997 13.5067 39.681 14.168C40.6623 14.808 41.3877 15.8 41.857 17.144C42.3263 18.4667 42.561 20.1627 42.561 22.232C42.561 24.3227 42.337 26.04 41.889 27.384C41.4623 28.728 40.7583 29.72 39.777 30.36C38.817 31 37.5263 31.32 35.905 31.32ZM37.633 25.688C38.1663 25.688 38.6463 25.56 39.073 25.304C39.4997 25.048 39.841 24.664 40.097 24.152C40.353 23.6187 40.481 22.9787 40.481 22.232C40.481 21.464 40.353 20.8347 40.097 20.344C39.841 19.832 39.4997 19.448 39.073 19.192C38.6463 18.936 38.1663 18.808 37.633 18.808C37.0997 18.808 36.6197 18.936 36.193 19.192C35.7663 19.448 35.425 19.832 35.169 20.344C34.913 20.8347 34.785 21.464 34.785 22.232C34.785 22.9787 34.913 23.6187 35.169 24.152C35.425 24.664 35.7663 25.048 36.193 25.304C36.6197 25.56 37.0997 25.688 37.633 25.688ZM40.705 31V28.632L40.673 22.232L40.353 15.832V7.256H47.585V31H40.705ZM60.0355 31.32C58.0515 31.32 56.2915 30.936 54.7555 30.168C53.2408 29.3787 52.0462 28.3013 51.1715 26.936C50.2968 25.5707 49.8595 24.0027 49.8595 22.232C49.8595 20.4613 50.2968 18.8933 51.1715 17.528C52.0462 16.1627 53.2408 15.096 54.7555 14.328C56.2915 13.56 58.0515 13.176 60.0355 13.176C62.0195 13.176 63.7795 13.56 65.3155 14.328C66.8515 15.096 68.0462 16.1627 68.8995 17.528C69.7742 18.8933 70.2115 20.4613 70.2115 22.232C70.2115 24.0027 69.7742 25.5707 68.8995 26.936C68.0462 28.3013 66.8515 29.3787 65.3155 30.168C63.7795 30.936 62.0195 31.32 60.0355 31.32ZM60.0355 25.688C60.5688 25.688 61.0488 25.56 61.4755 25.304C61.9022 25.048 62.2435 24.664 62.4995 24.152C62.7555 23.6187 62.8835 22.9787 62.8835 22.232C62.8835 21.464 62.7555 20.8347 62.4995 20.344C62.2435 19.832 61.9022 19.448 61.4755 19.192C61.0488 18.936 60.5688 18.808 60.0355 18.808C59.5022 18.808 59.0222 18.936 58.5955 19.192C58.1688 19.448 57.8275 19.832 57.5715 20.344C57.3155 20.8347 57.1875 21.464 57.1875 22.232C57.1875 22.9787 57.3155 23.6187 57.5715 24.152C57.8275 24.664 58.1688 25.048 58.5955 25.304C59.0222 25.56 59.5022 25.688 60.0355 25.688ZM84.635 13.176C85.979 13.176 87.195 13.4533 88.283 14.008C89.371 14.5413 90.2243 15.384 90.843 16.536C91.483 17.688 91.803 19.1813 91.803 21.016V31H84.571V22.264C84.571 21.176 84.379 20.408 83.995 19.96C83.611 19.4907 83.0883 19.256 82.427 19.256C81.9363 19.256 81.4777 19.3733 81.051 19.608C80.6457 19.8213 80.315 20.184 80.059 20.696C79.8243 21.208 79.707 21.9013 79.707 22.776V31H72.475V13.496H79.355V18.616L77.979 17.144C78.6617 15.8213 79.579 14.8293 80.731 14.168C81.9043 13.5067 83.2057 13.176 84.635 13.176ZM94.9438 31V13.496H102.176V31H94.9438ZM98.5598 12.088C97.2371 12.088 96.1811 11.736 95.3918 11.032C94.6024 10.328 94.2078 9.45333 94.2078 8.408C94.2078 7.36267 94.6024 6.488 95.3918 5.784C96.1811 5.08 97.2371 4.728 98.5598 4.728C99.8824 4.728 100.938 5.05867 101.728 5.72C102.517 6.38133 102.912 7.23466 102.912 8.28C102.912 9.38933 102.517 10.3067 101.728 11.032C100.938 11.736 99.8824 12.088 98.5598 12.088ZM112.229 31.32C110.736 31.32 109.264 31.16 107.813 30.84C106.363 30.52 105.189 30.104 104.293 29.592L106.277 24.824C107.109 25.3147 108.069 25.6987 109.157 25.976C110.267 26.2533 111.344 26.392 112.389 26.392C113.264 26.392 113.851 26.3173 114.149 26.168C114.469 26.0187 114.629 25.816 114.629 25.56C114.629 25.304 114.448 25.1227 114.085 25.016C113.723 24.888 113.243 24.792 112.645 24.728C112.048 24.664 111.387 24.5893 110.661 24.504C109.957 24.3973 109.243 24.248 108.517 24.056C107.792 23.864 107.131 23.576 106.533 23.192C105.936 22.808 105.456 22.296 105.093 21.656C104.731 20.9947 104.549 20.1627 104.549 19.16C104.549 18.0507 104.88 17.048 105.541 16.152C106.224 15.256 107.227 14.5413 108.549 14.008C109.893 13.4533 111.547 13.176 113.509 13.176C114.789 13.176 116.069 13.2933 117.349 13.528C118.629 13.7627 119.728 14.1253 120.645 14.616L118.661 19.384C117.765 18.8933 116.88 18.5627 116.005 18.392C115.152 18.2 114.352 18.104 113.605 18.104C112.688 18.104 112.059 18.1893 111.717 18.36C111.397 18.5307 111.237 18.7227 111.237 18.936C111.237 19.192 111.419 19.384 111.781 19.512C112.144 19.64 112.624 19.736 113.221 19.8C113.819 19.864 114.469 19.9493 115.173 20.056C115.899 20.1413 116.613 20.2907 117.317 20.504C118.043 20.696 118.704 20.984 119.301 21.368C119.899 21.752 120.379 22.2747 120.741 22.936C121.104 23.576 121.285 24.3973 121.285 25.4C121.285 26.4453 120.955 27.4267 120.293 28.344C119.632 29.24 118.629 29.9653 117.285 30.52C115.941 31.0533 114.256 31.32 112.229 31.32ZM143.626 31.192C141.941 31.192 140.383 30.9147 138.954 30.36C137.525 29.784 136.287 28.984 135.242 27.96C134.197 26.936 133.375 25.7307 132.778 24.344C132.202 22.9573 131.914 21.4427 131.914 19.8C131.914 18.1573 132.202 16.6427 132.778 15.256C133.375 13.8693 134.197 12.664 135.242 11.64C136.309 10.616 137.557 9.82667 138.986 9.272C140.415 8.696 141.973 8.408 143.658 8.408C145.279 8.408 146.805 8.68533 148.234 9.24C149.663 9.77333 150.869 10.584 151.85 11.672L150.346 13.176C149.429 12.2373 148.415 11.5653 147.306 11.16C146.197 10.7333 145.002 10.52 143.722 10.52C142.378 10.52 141.13 10.7547 139.978 11.224C138.826 11.672 137.823 12.3227 136.97 13.176C136.117 14.008 135.445 14.9893 134.954 16.12C134.485 17.2293 134.25 18.456 134.25 19.8C134.25 21.144 134.485 22.3813 134.954 23.512C135.445 24.6213 136.117 25.6027 136.97 26.456C137.823 27.288 138.826 27.9387 139.978 28.408C141.13 28.856 142.378 29.08 143.722 29.08C145.002 29.08 146.197 28.8667 147.306 28.44C148.415 28.0133 149.429 27.3307 150.346 26.392L151.85 27.896C150.869 28.984 149.663 29.8053 148.234 30.36C146.805 30.9147 145.269 31.192 143.626 31.192ZM162.8 31.16C161.37 31.16 160.122 30.8933 159.056 30.36C157.989 29.8267 157.157 29.0267 156.56 27.96C155.984 26.8933 155.696 25.56 155.696 23.96V14.2H157.968V23.704C157.968 25.496 158.405 26.8507 159.28 27.768C160.176 28.664 161.424 29.112 163.024 29.112C164.197 29.112 165.21 28.8773 166.064 28.408C166.938 27.9173 167.6 27.2133 168.048 26.296C168.517 25.3787 168.752 24.28 168.752 23V14.2H171.024V31H168.847V26.392L169.2 27.224C168.666 28.4613 167.834 29.432 166.704 30.136C165.594 30.8187 164.293 31.16 162.8 31.16ZM187.884 31V27.288L187.788 26.68V20.472C187.788 19.0427 187.382 17.944 186.572 17.176C185.782 16.408 184.598 16.024 183.02 16.024C181.932 16.024 180.897 16.2053 179.916 16.568C178.934 16.9307 178.102 17.4107 177.42 18.008L176.396 16.312C177.249 15.5867 178.273 15.032 179.468 14.648C180.662 14.2427 181.921 14.04 183.244 14.04C185.42 14.04 187.094 14.584 188.268 15.672C189.462 16.7387 190.06 18.3707 190.06 20.568V31H187.884ZM182.092 31.16C180.833 31.16 179.734 30.9573 178.796 30.552C177.878 30.1253 177.174 29.5493 176.684 28.824C176.193 28.0773 175.948 27.224 175.948 26.264C175.948 25.3893 176.15 24.6 176.556 23.896C176.982 23.1707 177.665 22.5947 178.604 22.168C179.564 21.72 180.844 21.496 182.444 21.496H188.236V23.192H182.508C180.886 23.192 179.756 23.48 179.116 24.056C178.497 24.632 178.188 25.3467 178.188 26.2C178.188 27.16 178.561 27.928 179.308 28.504C180.054 29.08 181.1 29.368 182.444 29.368C183.724 29.368 184.822 29.08 185.74 28.504C186.678 27.9067 187.361 27.0533 187.788 25.944L188.3 27.512C187.873 28.6213 187.126 29.5067 186.06 30.168C185.014 30.8293 183.692 31.16 182.092 31.16ZM196.231 31V14.2H198.503V31H196.231ZM197.383 10.488C196.913 10.488 196.519 10.328 196.199 10.008C195.879 9.688 195.719 9.304 195.719 8.856C195.719 8.408 195.879 8.03466 196.199 7.736C196.519 7.416 196.913 7.256 197.383 7.256C197.852 7.256 198.247 7.40533 198.567 7.704C198.887 8.00267 199.047 8.376 199.047 8.824C199.047 9.29333 198.887 9.688 198.567 10.008C198.268 10.328 197.873 10.488 197.383 10.488ZM215.352 31V27.288L215.256 26.68V20.472C215.256 19.0427 214.851 17.944 214.04 17.176C213.251 16.408 212.067 16.024 210.488 16.024C209.4 16.024 208.366 16.2053 207.384 16.568C206.403 16.9307 205.571 17.4107 204.888 18.008L203.864 16.312C204.718 15.5867 205.742 15.032 206.936 14.648C208.131 14.2427 209.39 14.04 210.712 14.04C212.888 14.04 214.563 14.584 215.736 15.672C216.931 16.7387 217.528 18.3707 217.528 20.568V31H215.352ZM209.56 31.16C208.302 31.16 207.203 30.9573 206.264 30.552C205.347 30.1253 204.643 29.5493 204.152 28.824C203.662 28.0773 203.416 27.224 203.416 26.264C203.416 25.3893 203.619 24.6 204.024 23.896C204.451 23.1707 205.134 22.5947 206.072 22.168C207.032 21.72 208.312 21.496 209.912 21.496H215.704V23.192H209.976C208.355 23.192 207.224 23.48 206.584 24.056C205.966 24.632 205.656 25.3467 205.656 26.2C205.656 27.16 206.03 27.928 206.776 28.504C207.523 29.08 208.568 29.368 209.912 29.368C211.192 29.368 212.291 29.08 213.208 28.504C214.147 27.9067 214.83 27.0533 215.256 25.944L215.768 27.512C215.342 28.6213 214.595 29.5067 213.528 30.168C212.483 30.8293 211.16 31.16 209.56 31.16Z" fill="white"/>
<path d="M225.395 31.32C224.201 31.32 223.198 30.936 222.387 30.168C221.577 29.3787 221.171 28.376 221.171 27.16C221.171 25.9227 221.577 24.9307 222.387 24.184C223.198 23.4373 224.201 23.064 225.395 23.064C226.59 23.064 227.593 23.4373 228.403 24.184C229.214 24.9307 229.619 25.9227 229.619 27.16C229.619 28.376 229.214 29.3787 228.403 30.168C227.593 30.936 226.59 31.32 225.395 31.32Z" fill="#1CC418"/>
</svg>
