<svg width="705" height="942" viewBox="0 0 705 942" fill="none" xmlns="http://www.w3.org/2000/svg">
<rect x="-9" width="714" height="942" fill="#FEA713"/>
<path d="M201.304 455.576C198.648 455.576 196.184 455.144 193.912 454.28C191.672 453.416 189.72 452.2 188.056 450.632C186.424 449.064 185.144 447.224 184.216 445.112C183.32 443 182.872 440.696 182.872 438.2C182.872 435.704 183.32 433.4 184.216 431.288C185.144 429.176 186.44 427.336 188.104 425.768C189.768 424.2 191.72 422.984 193.96 422.12C196.2 421.256 198.632 420.824 201.256 420.824C203.912 420.824 206.344 421.256 208.552 422.12C210.792 422.984 212.728 424.2 214.36 425.768C216.024 427.336 217.32 429.176 218.248 431.288C219.176 433.368 219.64 435.672 219.64 438.2C219.64 440.696 219.176 443.016 218.248 445.16C217.32 447.272 216.024 449.112 214.36 450.68C212.728 452.216 210.792 453.416 208.552 454.28C206.344 455.144 203.928 455.576 201.304 455.576ZM201.256 448.952C202.76 448.952 204.136 448.696 205.384 448.184C206.664 447.672 207.784 446.936 208.744 445.976C209.704 445.016 210.44 443.88 210.952 442.568C211.496 441.256 211.768 439.8 211.768 438.2C211.768 436.6 211.496 435.144 210.952 433.832C210.44 432.52 209.704 431.384 208.744 430.424C207.816 429.464 206.712 428.728 205.432 428.216C204.152 427.704 202.76 427.448 201.256 427.448C199.752 427.448 198.36 427.704 197.08 428.216C195.832 428.728 194.728 429.464 193.768 430.424C192.808 431.384 192.056 432.52 191.512 433.832C191 435.144 190.744 436.6 190.744 438.2C190.744 439.768 191 441.224 191.512 442.568C192.056 443.88 192.792 445.016 193.72 445.976C194.68 446.936 195.8 447.672 197.08 448.184C198.36 448.696 199.752 448.952 201.256 448.952ZM236.524 455.576C233.836 455.576 231.26 455.224 228.796 454.52C226.332 453.784 224.348 452.84 222.844 451.688L225.484 445.832C226.924 446.856 228.62 447.704 230.572 448.376C232.556 449.016 234.556 449.336 236.572 449.336C238.108 449.336 239.34 449.192 240.268 448.904C241.228 448.584 241.932 448.152 242.38 447.608C242.828 447.064 243.052 446.44 243.052 445.736C243.052 444.84 242.7 444.136 241.996 443.624C241.292 443.08 240.364 442.648 239.212 442.328C238.06 441.976 236.78 441.656 235.372 441.368C233.996 441.048 232.604 440.664 231.196 440.216C229.82 439.768 228.556 439.192 227.404 438.488C226.252 437.784 225.308 436.856 224.572 435.704C223.868 434.552 223.516 433.08 223.516 431.288C223.516 429.368 224.028 427.624 225.052 426.056C226.108 424.456 227.676 423.192 229.756 422.264C231.868 421.304 234.508 420.824 237.676 420.824C239.788 420.824 241.868 421.08 243.916 421.592C245.964 422.072 247.772 422.808 249.34 423.8L246.94 429.704C245.372 428.808 243.804 428.152 242.236 427.736C240.668 427.288 239.132 427.064 237.628 427.064C236.124 427.064 234.892 427.24 233.932 427.592C232.972 427.944 232.284 428.408 231.868 428.984C231.452 429.528 231.244 430.168 231.244 430.904C231.244 431.768 231.596 432.472 232.3 433.016C233.004 433.528 233.932 433.944 235.084 434.264C236.236 434.584 237.5 434.904 238.876 435.224C240.284 435.544 241.676 435.912 243.052 436.328C244.46 436.744 245.74 437.304 246.892 438.008C248.044 438.712 248.972 439.64 249.676 440.792C250.412 441.944 250.78 443.4 250.78 445.16C250.78 447.048 250.252 448.776 249.196 450.344C248.14 451.912 246.556 453.176 244.444 454.136C242.364 455.096 239.724 455.576 236.524 455.576ZM269.687 455V421.4H276.119L295.943 445.592H292.823V421.4H300.503V455H294.119L274.247 430.808H277.367V455H269.687ZM323.381 455.576C318.613 455.576 314.885 454.248 312.197 451.592C309.509 448.936 308.165 445.144 308.165 440.216V421.4H315.941V439.928C315.941 443.128 316.597 445.432 317.909 446.84C319.221 448.248 321.061 448.952 323.429 448.952C325.797 448.952 327.637 448.248 328.949 446.84C330.261 445.432 330.917 443.128 330.917 439.928V421.4H338.597V440.216C338.597 445.144 337.253 448.936 334.565 451.592C331.877 454.248 328.149 455.576 323.381 455.576ZM319.061 418.664L325.541 411.752H333.605L324.917 418.664H319.061ZM346.281 455V421.4H352.713L367.017 445.112H363.609L377.673 421.4H384.057L384.153 455H376.857L376.809 432.584H378.153L366.921 451.448H363.417L351.945 432.584H353.577V455H346.281ZM399.277 434.936H415.453V440.984H399.277V434.936ZM399.853 448.76H418.141V455H392.125V421.4H417.517V427.64H399.853V448.76ZM424.328 455V421.4H438.872C441.88 421.4 444.472 421.896 446.648 422.888C448.824 423.848 450.504 425.24 451.688 427.064C452.872 428.888 453.464 431.064 453.464 433.592C453.464 436.088 452.872 438.248 451.688 440.072C450.504 441.864 448.824 443.24 446.648 444.2C444.472 445.16 441.88 445.64 438.872 445.64H428.648L432.104 442.232V455H424.328ZM445.688 455L437.288 442.808H445.592L454.088 455H445.688ZM432.104 443.096L428.648 439.448H438.44C440.84 439.448 442.632 438.936 443.816 437.912C445 436.856 445.592 435.416 445.592 433.592C445.592 431.736 445 430.296 443.816 429.272C442.632 428.248 440.84 427.736 438.44 427.736H428.648L432.104 424.04V443.096ZM475.945 455.576C473.289 455.576 470.825 455.144 468.553 454.28C466.313 453.416 464.361 452.2 462.697 450.632C461.065 449.064 459.785 447.224 458.857 445.112C457.961 443 457.513 440.696 457.513 438.2C457.513 435.704 457.961 433.4 458.857 431.288C459.785 429.176 461.081 427.336 462.745 425.768C464.409 424.2 466.361 422.984 468.601 422.12C470.841 421.256 473.273 420.824 475.897 420.824C478.553 420.824 480.985 421.256 483.193 422.12C485.433 422.984 487.369 424.2 489.001 425.768C490.665 427.336 491.961 429.176 492.889 431.288C493.817 433.368 494.281 435.672 494.281 438.2C494.281 440.696 493.817 443.016 492.889 445.16C491.961 447.272 490.665 449.112 489.001 450.68C487.369 452.216 485.433 453.416 483.193 454.28C480.985 455.144 478.569 455.576 475.945 455.576ZM475.897 448.952C477.401 448.952 478.777 448.696 480.025 448.184C481.305 447.672 482.425 446.936 483.385 445.976C484.345 445.016 485.081 443.88 485.593 442.568C486.137 441.256 486.409 439.8 486.409 438.2C486.409 436.6 486.137 435.144 485.593 433.832C485.081 432.52 484.345 431.384 483.385 430.424C482.457 429.464 481.353 428.728 480.073 428.216C478.793 427.704 477.401 427.448 475.897 427.448C474.393 427.448 473.001 427.704 471.721 428.216C470.473 428.728 469.369 429.464 468.409 430.424C467.449 431.384 466.697 432.52 466.153 433.832C465.641 435.144 465.385 436.6 465.385 438.2C465.385 439.768 465.641 441.224 466.153 442.568C466.697 443.88 467.433 445.016 468.361 445.976C469.321 446.936 470.441 447.672 471.721 448.184C473.001 448.696 474.393 448.952 475.897 448.952ZM511.165 455.576C508.477 455.576 505.901 455.224 503.437 454.52C500.973 453.784 498.989 452.84 497.485 451.688L500.125 445.832C501.565 446.856 503.261 447.704 505.213 448.376C507.197 449.016 509.197 449.336 511.213 449.336C512.749 449.336 513.981 449.192 514.909 448.904C515.869 448.584 516.573 448.152 517.021 447.608C517.469 447.064 517.693 446.44 517.693 445.736C517.693 444.84 517.341 444.136 516.637 443.624C515.933 443.08 515.005 442.648 513.853 442.328C512.701 441.976 511.421 441.656 510.013 441.368C508.637 441.048 507.245 440.664 505.837 440.216C504.461 439.768 503.197 439.192 502.045 438.488C500.893 437.784 499.949 436.856 499.213 435.704C498.509 434.552 498.157 433.08 498.157 431.288C498.157 429.368 498.669 427.624 499.693 426.056C500.749 424.456 502.317 423.192 504.397 422.264C506.509 421.304 509.149 420.824 512.317 420.824C514.429 420.824 516.509 421.08 518.557 421.592C520.605 422.072 522.413 422.808 523.981 423.8L521.581 429.704C520.013 428.808 518.445 428.152 516.877 427.736C515.309 427.288 513.773 427.064 512.269 427.064C510.765 427.064 509.533 427.24 508.573 427.592C507.613 427.944 506.925 428.408 506.509 428.984C506.093 429.528 505.885 430.168 505.885 430.904C505.885 431.768 506.237 432.472 506.941 433.016C507.645 433.528 508.573 433.944 509.725 434.264C510.877 434.584 512.141 434.904 513.517 435.224C514.925 435.544 516.317 435.912 517.693 436.328C519.101 436.744 520.381 437.304 521.533 438.008C522.685 438.712 523.613 439.64 524.317 440.792C525.053 441.944 525.421 443.4 525.421 445.16C525.421 447.048 524.893 448.776 523.837 450.344C522.781 451.912 521.197 453.176 519.085 454.136C517.005 455.096 514.365 455.576 511.165 455.576Z" fill="white"/>
</svg>
